# xmcd
#
# Track frame offsets:
#	150
#	25343
#	44353
#	65551
#	81598
#	100422
#	117274
#	143977
#	164746
#	191360
#	211058
#	232668
#	252295
#	273700
#	297103
#
# Disc length: 4290
#
# Revision: 2
# Processed by: cddbd v1.5.1PL0 Copyright (c) Steve Scherf et al.
# Submitted via: CDex 1.51
# Normalized: r1:TDELIM( - )
#
DISCID=df10c00f
DTITLE=Various Artist - Various
DYEAR=2004
DGENRE=Merengue
TTITLE0=Willie Colón - Si Fuera Mia
TTITLE1=Magda Lake - Boca Rosa
TTITLE2=Carlos Alfredo - Amantas O Nada
TTITLE3=Elio Rodriguez - Saca Tela Mete Tela
TTITLE4=Grupo Salvaje - Mi Reina
TTITLE5=Salva Valero - A Mover La Colita
TTITLE6=Irakere - Por Culpa Del Cuao
TTITLE7=La Cubana - El Africano
TTITLE8=Verschiedene - Merenguemania
TTITLE9=Bonny Cepeda - Mentiras
TTITLE10=Gabriel Pena - Esa Negra
TTITLE11=Joan Minaya - Por Ella
TTITLE12=Conflicio - Ojitos Bellos
TTITLE13=Omar Domorisi - Fiesta En La Vecindad
TTITLE14=Habana Club Band - El Venao
EXTD=YEAR: 2004
EXTT0=
EXTT1=
EXTT2=
EXTT3=
EXTT4=
EXTT5=
EXTT6=
EXTT7=
EXTT8=
EXTT9=
EXTT10=
EXTT11=
EXTT12=
EXTT13=
EXTT14=
PLAYORDER=
